<svg xmlns="http://www.w3.org/2000/svg" xmlns:xlink="http://www.w3.org/1999/xlink" width="500" zoomAndPan="magnify" viewBox="0 0 375 374.999991" height="500" preserveAspectRatio="xMidYMid meet" version="1.0"><defs><filter x="0%" y="0%" width="100%" height="100%" id="0f4474df5f"><feColorMatrix values="0 0 0 0 1 0 0 0 0 1 0 0 0 0 1 0 0 0 1 0" color-interpolation-filters="sRGB"/></filter><mask id="c8863a5057"><g filter="url(#0f4474df5f)"><rect x="-37.5" width="450" fill="#000000" y="-37.499999" height="449.999989" fill-opacity="0.19"/></g></mask><clipPath id="80359ef8c5"><path d="M 0 0 L 243 0 L 243 243 L 0 243 Z M 0 0 " clip-rule="nonzero"/></clipPath><clipPath id="672ef7cf28"><path d="M 121.5 0 C 54.398438 0 0 54.398438 0 121.5 C 0 188.601562 54.398438 243 121.5 243 C 188.601562 243 243 188.601562 243 121.5 C 243 54.398438 188.601562 0 121.5 0 Z M 121.5 0 " clip-rule="nonzero"/></clipPath><radialGradient gradientTransform="matrix(1, 0, 0, 1, 0.000000166, -0.000004334)" gradientUnits="userSpaceOnUse" r="171.826617" cx="121.499991" id="09ad563346" cy="121.499991" fx="121.499991" fy="121.499991"><stop stop-opacity="1" stop-color="rgb(18.399048%, 72.499084%, 36.499023%)" offset="0"/><stop stop-opacity="1" stop-color="rgb(18.399048%, 72.499084%, 36.499023%)" offset="1"/></radialGradient><clipPath id="20aa18885a"><rect x="0" width="244" y="0" height="244"/></clipPath><clipPath id="10c30d7eb8"><path d="M 82.929688 82.929688 L 292.070312 82.929688 L 292.070312 292.070312 L 82.929688 292.070312 Z M 82.929688 82.929688 " clip-rule="nonzero"/></clipPath><clipPath id="0c0cbfe837"><path d="M 187.5 82.929688 C 129.746094 82.929688 82.929688 129.746094 82.929688 187.5 C 82.929688 245.253906 129.746094 292.070312 187.5 292.070312 C 245.253906 292.070312 292.070312 245.253906 292.070312 187.5 C 292.070312 129.746094 245.253906 82.929688 187.5 82.929688 Z M 187.5 82.929688 " clip-rule="nonzero"/></clipPath><radialGradient gradientTransform="matrix(1, 0, 0, 1, 82.928264, 82.928258)" gradientUnits="userSpaceOnUse" r="147.886493" cx="104.571736" id="cbba4f5cc2" cy="104.571736" fx="104.571736" fy="104.571736"><stop stop-opacity="1" stop-color="rgb(41.020203%, 88.075256%, 56.739807%)" offset="0"/><stop stop-opacity="1" stop-color="rgb(40.708923%, 87.861633%, 56.460571%)" offset="0.015625"/><stop stop-opacity="1" stop-color="rgb(40.441895%, 87.677002%, 56.221008%)" offset="0.0273438"/><stop stop-opacity="1" stop-color="rgb(40.174866%, 87.493896%, 55.982971%)" offset="0.0390625"/><stop stop-opacity="1" stop-color="rgb(39.907837%, 87.309265%, 55.743408%)" offset="0.0507812"/><stop stop-opacity="1" stop-color="rgb(39.639282%, 87.12616%, 55.503845%)" offset="0.0625"/><stop stop-opacity="1" stop-color="rgb(39.372253%, 86.941528%, 55.265808%)" offset="0.0742188"/><stop stop-opacity="1" stop-color="rgb(39.105225%, 86.756897%, 55.026245%)" offset="0.0859375"/><stop stop-opacity="1" stop-color="rgb(38.838196%, 86.573792%, 54.786682%)" offset="0.0976562"/><stop stop-opacity="1" stop-color="rgb(38.571167%, 86.38916%, 54.548645%)" offset="0.109375"/><stop stop-opacity="1" stop-color="rgb(38.304138%, 86.206055%, 54.309082%)" offset="0.121094"/><stop stop-opacity="1" stop-color="rgb(38.037109%, 86.021423%, 54.069519%)" offset="0.132812"/><stop stop-opacity="1" stop-color="rgb(37.770081%, 85.838318%, 53.831482%)" offset="0.144531"/><stop stop-opacity="1" stop-color="rgb(37.503052%, 85.653687%, 53.591919%)" offset="0.15625"/><stop stop-opacity="1" stop-color="rgb(37.236023%, 85.469055%, 53.352356%)" offset="0.167969"/><stop stop-opacity="1" stop-color="rgb(36.967468%, 85.28595%, 53.114319%)" offset="0.179688"/><stop stop-opacity="1" stop-color="rgb(36.700439%, 85.101318%, 52.874756%)" offset="0.191406"/><stop stop-opacity="1" stop-color="rgb(36.433411%, 84.918213%, 52.635193%)" offset="0.203125"/><stop stop-opacity="1" stop-color="rgb(36.166382%, 84.733582%, 52.39563%)" offset="0.214844"/><stop stop-opacity="1" stop-color="rgb(35.899353%, 84.550476%, 52.157593%)" offset="0.226562"/><stop stop-opacity="1" stop-color="rgb(35.632324%, 84.365845%, 51.91803%)" offset="0.238281"/><stop stop-opacity="1" stop-color="rgb(35.365295%, 84.181213%, 51.678467%)" offset="0.25"/><stop stop-opacity="1" stop-color="rgb(35.142517%, 84.028625%, 51.480103%)" offset="0.261719"/><stop stop-opacity="1" stop-color="rgb(34.963989%, 83.906555%, 51.321411%)" offset="0.269531"/><stop stop-opacity="1" stop-color="rgb(34.785461%, 83.782959%, 51.161194%)" offset="0.277344"/><stop stop-opacity="1" stop-color="rgb(34.608459%, 83.660889%, 51.002502%)" offset="0.285156"/><stop stop-opacity="1" stop-color="rgb(34.429932%, 83.537292%, 50.842285%)" offset="0.292969"/><stop stop-opacity="1" stop-color="rgb(34.251404%, 83.415222%, 50.683594%)" offset="0.300781"/><stop stop-opacity="1" stop-color="rgb(34.074402%, 83.293152%, 50.523376%)" offset="0.308594"/><stop stop-opacity="1" stop-color="rgb(33.895874%, 83.169556%, 50.364685%)" offset="0.316406"/><stop stop-opacity="1" stop-color="rgb(33.717346%, 83.047485%, 50.204468%)" offset="0.324219"/><stop stop-opacity="1" stop-color="rgb(33.538818%, 82.925415%, 50.045776%)" offset="0.332031"/><stop stop-opacity="1" stop-color="rgb(33.361816%, 82.801819%, 49.887085%)" offset="0.339844"/><stop stop-opacity="1" stop-color="rgb(33.183289%, 82.679749%, 49.726868%)" offset="0.347656"/><stop stop-opacity="1" stop-color="rgb(33.004761%, 82.556152%, 49.568176%)" offset="0.355469"/><stop stop-opacity="1" stop-color="rgb(32.826233%, 82.434082%, 49.407959%)" offset="0.363281"/><stop stop-opacity="1" stop-color="rgb(32.649231%, 82.312012%, 49.249268%)" offset="0.371094"/><stop stop-opacity="1" stop-color="rgb(32.382202%, 82.12738%, 49.009705%)" offset="0.378906"/><stop stop-opacity="1" stop-color="rgb(32.025146%, 81.881714%, 48.690796%)" offset="0.394531"/><stop stop-opacity="1" stop-color="rgb(31.669617%, 81.636047%, 48.371887%)" offset="0.410156"/><stop stop-opacity="1" stop-color="rgb(31.312561%, 81.391907%, 48.052979%)" offset="0.425781"/><stop stop-opacity="1" stop-color="rgb(30.957031%, 81.14624%, 47.73407%)" offset="0.441406"/><stop stop-opacity="1" stop-color="rgb(30.599976%, 80.900574%, 47.415161%)" offset="0.457031"/><stop stop-opacity="1" stop-color="rgb(30.244446%, 80.654907%, 47.096252%)" offset="0.472656"/><stop stop-opacity="1" stop-color="rgb(29.88739%, 80.409241%, 46.77887%)" offset="0.488281"/><stop stop-opacity="1" stop-color="rgb(29.576111%, 80.195618%, 46.499634%)" offset="0.503906"/><stop stop-opacity="1" stop-color="rgb(29.309082%, 80.010986%, 46.260071%)" offset="0.515625"/><stop stop-opacity="1" stop-color="rgb(29.042053%, 79.827881%, 46.022034%)" offset="0.527344"/><stop stop-opacity="1" stop-color="rgb(28.775024%, 79.64325%, 45.782471%)" offset="0.539062"/><stop stop-opacity="1" stop-color="rgb(28.50647%, 79.460144%, 45.542908%)" offset="0.550781"/><stop stop-opacity="1" stop-color="rgb(28.239441%, 79.275513%, 45.304871%)" offset="0.5625"/><stop stop-opacity="1" stop-color="rgb(27.972412%, 79.090881%, 45.065308%)" offset="0.574219"/><stop stop-opacity="1" stop-color="rgb(27.705383%, 78.907776%, 44.825745%)" offset="0.585938"/><stop stop-opacity="1" stop-color="rgb(27.438354%, 78.723145%, 44.587708%)" offset="0.597656"/><stop stop-opacity="1" stop-color="rgb(27.171326%, 78.540039%, 44.348145%)" offset="0.609375"/><stop stop-opacity="1" stop-color="rgb(26.904297%, 78.355408%, 44.108582%)" offset="0.621094"/><stop stop-opacity="1" stop-color="rgb(26.681519%, 78.20282%, 43.910217%)" offset="0.632812"/><stop stop-opacity="1" stop-color="rgb(26.502991%, 78.079224%, 43.75%)" offset="0.640625"/><stop stop-opacity="1" stop-color="rgb(26.325989%, 77.957153%, 43.591309%)" offset="0.648438"/><stop stop-opacity="1" stop-color="rgb(26.147461%, 77.835083%, 43.431091%)" offset="0.65625"/><stop stop-opacity="1" stop-color="rgb(25.968933%, 77.711487%, 43.2724%)" offset="0.664062"/><stop stop-opacity="1" stop-color="rgb(25.790405%, 77.589417%, 43.113708%)" offset="0.671875"/><stop stop-opacity="1" stop-color="rgb(25.613403%, 77.46582%, 42.953491%)" offset="0.679688"/><stop stop-opacity="1" stop-color="rgb(25.434875%, 77.34375%, 42.7948%)" offset="0.6875"/><stop stop-opacity="1" stop-color="rgb(25.167847%, 77.159119%, 42.555237%)" offset="0.695312"/><stop stop-opacity="1" stop-color="rgb(24.810791%, 76.914978%, 42.236328%)" offset="0.710938"/><stop stop-opacity="1" stop-color="rgb(24.455261%, 76.669312%, 41.917419%)" offset="0.726562"/><stop stop-opacity="1" stop-color="rgb(24.098206%, 76.423645%, 41.598511%)" offset="0.742188"/><stop stop-opacity="1" stop-color="rgb(23.786926%, 76.208496%, 41.319275%)" offset="0.757812"/><stop stop-opacity="1" stop-color="rgb(23.519897%, 76.025391%, 41.081238%)" offset="0.769531"/><stop stop-opacity="1" stop-color="rgb(23.252869%, 75.840759%, 40.841675%)" offset="0.78125"/><stop stop-opacity="1" stop-color="rgb(22.98584%, 75.657654%, 40.602112%)" offset="0.792969"/><stop stop-opacity="1" stop-color="rgb(22.718811%, 75.473022%, 40.364075%)" offset="0.804688"/><stop stop-opacity="1" stop-color="rgb(22.496033%, 75.320435%, 40.164185%)" offset="0.816406"/><stop stop-opacity="1" stop-color="rgb(22.317505%, 75.196838%, 40.005493%)" offset="0.824219"/><stop stop-opacity="1" stop-color="rgb(22.138977%, 75.074768%, 39.845276%)" offset="0.832031"/><stop stop-opacity="1" stop-color="rgb(21.960449%, 74.952698%, 39.686584%)" offset="0.839844"/><stop stop-opacity="1" stop-color="rgb(21.69342%, 74.768066%, 39.447021%)" offset="0.847656"/><stop stop-opacity="1" stop-color="rgb(21.337891%, 74.5224%, 39.128113%)" offset="0.863281"/><stop stop-opacity="1" stop-color="rgb(21.026611%, 74.307251%, 38.848877%)" offset="0.878906"/><stop stop-opacity="1" stop-color="rgb(20.758057%, 74.124146%, 38.61084%)" offset="0.890625"/><stop stop-opacity="1" stop-color="rgb(20.491028%, 73.939514%, 38.371277%)" offset="0.902344"/><stop stop-opacity="1" stop-color="rgb(20.26825%, 73.786926%, 38.172913%)" offset="0.914062"/><stop stop-opacity="1" stop-color="rgb(20.091248%, 73.664856%, 38.012695%)" offset="0.921875"/><stop stop-opacity="1" stop-color="rgb(19.824219%, 73.480225%, 37.773132%)" offset="0.929688"/><stop stop-opacity="1" stop-color="rgb(19.511414%, 73.265076%, 37.495422%)" offset="0.945312"/><stop stop-opacity="1" stop-color="rgb(19.288635%, 73.112488%, 37.295532%)" offset="0.957031"/><stop stop-opacity="1" stop-color="rgb(19.021606%, 72.927856%, 37.055969%)" offset="0.964844"/><stop stop-opacity="1" stop-color="rgb(18.754578%, 72.744751%, 36.817932%)" offset="0.980469"/><stop stop-opacity="1" stop-color="rgb(18.531799%, 72.590637%, 36.618042%)" offset="0.988281"/><stop stop-opacity="1" stop-color="rgb(18.399048%, 72.499084%, 36.499023%)" offset="1"/></radialGradient><mask id="f1569d55a6"><g filter="url(#0f4474df5f)"><rect x="-37.5" width="450" fill="#000000" y="-37.499999" height="449.999989" fill-opacity="0.75"/></g></mask><clipPath id="f8decc8c4e"><path d="M 0.21875 0.21875 L 134.46875 0.21875 L 134.46875 134.46875 L 0.21875 134.46875 Z M 0.21875 0.21875 " clip-rule="nonzero"/></clipPath><clipPath id="6b780bd655"><rect x="0" width="135" y="0" height="135"/></clipPath></defs><g mask="url(#c8863a5057)"><g transform="matrix(1, 0, 0, 1, 66, 66)"><g clip-path="url(#20aa18885a)"><g clip-path="url(#80359ef8c5)"><g clip-path="url(#672ef7cf28)"><path fill="url(#09ad563346)" d="M 0 0 L 0 243 L 243 243 L 243 0 Z M 0 0 " fill-rule="nonzero"/></g></g></g></g></g><g clip-path="url(#10c30d7eb8)"><g clip-path="url(#0c0cbfe837)"><path fill="url(#cbba4f5cc2)" d="M 82.929688 82.929688 L 82.929688 292.070312 L 292.070312 292.070312 L 292.070312 82.929688 Z M 82.929688 82.929688 " fill-rule="nonzero"/></g></g><g mask="url(#f1569d55a6)"><g transform="matrix(1, 0, 0, 1, 120, 120)"><g clip-path="url(#6b780bd655)"><path fill="#ffffff" d="M 47.3125 45.070312 L 51.800781 45.070312 L 51.800781 49.554688 L 47.3125 49.554688 Z M 47.3125 45.070312 " fill-opacity="1" fill-rule="nonzero"/><path fill="#ffffff" d="M 47.3125 54.042969 L 51.800781 54.042969 L 51.800781 58.527344 L 47.3125 58.527344 Z M 47.3125 54.042969 " fill-opacity="1" fill-rule="nonzero"/><path fill="#ffffff" d="M 47.3125 63.011719 L 51.800781 63.011719 L 51.800781 67.496094 L 47.3125 67.496094 Z M 47.3125 63.011719 " fill-opacity="1" fill-rule="nonzero"/><path fill="#ffffff" d="M 47.3125 71.980469 L 51.800781 71.980469 L 51.800781 76.46875 L 47.3125 76.46875 Z M 47.3125 71.980469 " fill-opacity="1" fill-rule="nonzero"/><path fill="#ffffff" d="M 56.285156 45.070312 L 60.769531 45.070312 L 60.769531 49.554688 L 56.285156 49.554688 Z M 56.285156 45.070312 " fill-opacity="1" fill-rule="nonzero"/><path fill="#ffffff" d="M 56.285156 54.042969 L 60.769531 54.042969 L 60.769531 58.527344 L 56.285156 58.527344 Z M 56.285156 54.042969 " fill-opacity="1" fill-rule="nonzero"/><path fill="#ffffff" d="M 56.285156 63.011719 L 60.769531 63.011719 L 60.769531 67.496094 L 56.285156 67.496094 Z M 56.285156 63.011719 " fill-opacity="1" fill-rule="nonzero"/><path fill="#ffffff" d="M 56.285156 71.980469 L 60.769531 71.980469 L 60.769531 76.46875 L 56.285156 76.46875 Z M 56.285156 71.980469 " fill-opacity="1" fill-rule="nonzero"/><path fill="#ffffff" d="M 65.253906 45.070312 L 69.738281 45.070312 L 69.738281 49.554688 L 65.253906 49.554688 Z M 65.253906 45.070312 " fill-opacity="1" fill-rule="nonzero"/><path fill="#ffffff" d="M 65.253906 54.042969 L 69.738281 54.042969 L 69.738281 58.527344 L 65.253906 58.527344 Z M 65.253906 54.042969 " fill-opacity="1" fill-rule="nonzero"/><path fill="#ffffff" d="M 65.253906 63.011719 L 69.738281 63.011719 L 69.738281 67.496094 L 65.253906 67.496094 Z M 65.253906 63.011719 " fill-opacity="1" fill-rule="nonzero"/><path fill="#ffffff" d="M 65.253906 71.980469 L 69.738281 71.980469 L 69.738281 76.46875 L 65.253906 76.46875 Z M 65.253906 71.980469 " fill-opacity="1" fill-rule="nonzero"/><path fill="#ffffff" d="M 74.226562 45.070312 L 78.710938 45.070312 L 78.710938 49.554688 L 74.226562 49.554688 Z M 74.226562 45.070312 " fill-opacity="1" fill-rule="nonzero"/><path fill="#ffffff" d="M 56.285156 36.101562 L 60.769531 36.101562 L 60.769531 40.585938 L 56.285156 40.585938 Z M 56.285156 36.101562 " fill-opacity="1" fill-rule="nonzero"/><path fill="#ffffff" d="M 65.253906 36.101562 L 69.738281 36.101562 L 69.738281 40.585938 L 65.253906 40.585938 Z M 65.253906 36.101562 " fill-opacity="1" fill-rule="nonzero"/><path fill="#ffffff" d="M 74.226562 36.101562 L 78.710938 36.101562 L 78.710938 40.585938 L 74.226562 40.585938 Z M 74.226562 36.101562 " fill-opacity="1" fill-rule="nonzero"/><path fill="#ffffff" d="M 74.226562 54.042969 L 78.710938 54.042969 L 78.710938 58.527344 L 74.226562 58.527344 Z M 74.226562 54.042969 " fill-opacity="1" fill-rule="nonzero"/><path fill="#ffffff" d="M 74.226562 63.011719 L 78.710938 63.011719 L 78.710938 67.496094 L 74.226562 67.496094 Z M 74.226562 63.011719 " fill-opacity="1" fill-rule="nonzero"/><path fill="#ffffff" d="M 74.226562 71.980469 L 78.710938 71.980469 L 78.710938 76.46875 L 74.226562 76.46875 Z M 74.226562 71.980469 " fill-opacity="1" fill-rule="nonzero"/><path fill="#ffffff" d="M 83.195312 45.070312 L 87.679688 45.070312 L 87.679688 49.554688 L 83.195312 49.554688 Z M 83.195312 45.070312 " fill-opacity="1" fill-rule="nonzero"/><path fill="#ffffff" d="M 83.195312 54.042969 L 87.679688 54.042969 L 87.679688 58.527344 L 83.195312 58.527344 Z M 83.195312 54.042969 " fill-opacity="1" fill-rule="nonzero"/><path fill="#ffffff" d="M 83.195312 63.011719 L 87.679688 63.011719 L 87.679688 67.496094 L 83.195312 67.496094 Z M 83.195312 63.011719 " fill-opacity="1" fill-rule="nonzero"/><path fill="#ffffff" d="M 83.195312 71.980469 L 87.679688 71.980469 L 87.679688 76.46875 L 83.195312 76.46875 Z M 83.195312 71.980469 " fill-opacity="1" fill-rule="nonzero"/><g clip-path="url(#f8decc8c4e)"><path fill="#ffffff" d="M 132.53125 33.859375 L 98.894531 33.859375 L 98.894531 2.460938 C 98.894531 2.164062 98.835938 1.878906 98.722656 1.605469 C 98.609375 1.328125 98.445312 1.085938 98.234375 0.875 C 98.027344 0.667969 97.785156 0.503906 97.507812 0.390625 C 97.234375 0.277344 96.949219 0.21875 96.652344 0.21875 L 38.34375 0.21875 C 38.046875 0.21875 37.761719 0.277344 37.484375 0.390625 C 37.210938 0.503906 36.96875 0.667969 36.757812 0.875 C 36.546875 1.085938 36.386719 1.328125 36.273438 1.605469 C 36.15625 1.878906 36.101562 2.164062 36.101562 2.460938 L 36.101562 33.859375 L 2.460938 33.859375 C 2.164062 33.859375 1.878906 33.914062 1.605469 34.027344 C 1.328125 34.144531 1.085938 34.304688 0.875 34.515625 C 0.667969 34.726562 0.503906 34.96875 0.390625 35.242188 C 0.277344 35.515625 0.21875 35.804688 0.21875 36.101562 L 0.21875 116.832031 C 0.21875 117.132812 0.277344 117.417969 0.390625 117.691406 C 0.503906 117.964844 0.667969 118.210938 0.875 118.417969 C 1.085938 118.628906 1.328125 118.792969 1.605469 118.90625 C 1.878906 119.019531 2.164062 119.078125 2.460938 119.078125 L 7.148438 119.078125 C 7.019531 119.816406 6.953125 120.566406 6.949219 121.320312 L 6.949219 132.53125 C 6.949219 132.828125 7.003906 133.113281 7.117188 133.390625 C 7.230469 133.664062 7.394531 133.90625 7.605469 134.117188 C 7.816406 134.328125 8.058594 134.488281 8.332031 134.605469 C 8.605469 134.71875 8.894531 134.773438 9.191406 134.773438 L 125.804688 134.773438 C 126.101562 134.773438 126.386719 134.71875 126.664062 134.605469 C 126.9375 134.488281 127.179688 134.328125 127.390625 134.117188 C 127.601562 133.90625 127.761719 133.664062 127.875 133.390625 C 127.988281 133.113281 128.046875 132.828125 128.046875 132.53125 L 128.046875 121.320312 C 128.042969 120.566406 127.976562 119.816406 127.84375 119.078125 L 132.53125 119.078125 C 132.828125 119.078125 133.113281 119.019531 133.390625 118.90625 C 133.664062 118.792969 133.90625 118.628906 134.117188 118.417969 C 134.328125 118.210938 134.488281 117.964844 134.605469 117.691406 C 134.71875 117.417969 134.773438 117.132812 134.773438 116.832031 L 134.773438 36.101562 C 134.773438 35.804688 134.71875 35.515625 134.605469 35.242188 C 134.488281 34.96875 134.328125 34.726562 134.117188 34.515625 C 133.90625 34.304688 133.664062 34.144531 133.390625 34.027344 C 133.113281 33.914062 132.828125 33.859375 132.53125 33.859375 Z M 96.53125 95.660156 C 96.53125 95.683594 96.546875 95.703125 96.550781 95.726562 C 96.683594 96.34375 96.683594 96.957031 96.550781 97.574219 C 96.550781 97.597656 96.539062 97.617188 96.53125 97.640625 C 96.316406 98.5625 95.855469 99.335938 95.148438 99.96875 L 95.148438 99.984375 C 94.300781 100.75 93.308594 101.132812 92.164062 101.136719 C 91.847656 101.132812 91.535156 101.101562 91.226562 101.03125 C 91.121094 101.011719 91.027344 100.96875 90.925781 100.941406 C 90.730469 100.886719 90.539062 100.824219 90.351562 100.746094 C 90.230469 100.691406 90.128906 100.621094 90.003906 100.558594 C 89.847656 100.476562 89.699219 100.386719 89.554688 100.289062 C 89.4375 100.207031 89.332031 100.113281 89.226562 100.019531 C 89.101562 99.914062 88.980469 99.796875 88.863281 99.671875 C 88.769531 99.570312 88.679688 99.460938 88.59375 99.347656 C 88.492188 99.214844 88.398438 99.074219 88.3125 98.929688 C 88.238281 98.804688 88.167969 98.679688 88.105469 98.542969 C 88.039062 98.398438 87.980469 98.246094 87.929688 98.09375 C 87.882812 97.953125 87.832031 97.8125 87.796875 97.667969 C 87.761719 97.503906 87.738281 97.335938 87.722656 97.171875 C 87.703125 97.027344 87.683594 96.886719 87.679688 96.738281 C 87.679688 96.5625 87.691406 96.386719 87.714844 96.210938 C 87.726562 96.066406 87.730469 95.917969 87.757812 95.777344 C 87.828125 95.417969 87.945312 95.070312 88.109375 94.742188 C 88.160156 94.632812 88.21875 94.53125 88.277344 94.429688 C 88.4375 94.148438 88.625 93.890625 88.835938 93.652344 C 88.878906 93.605469 88.910156 93.554688 88.957031 93.507812 C 89.222656 93.242188 89.515625 93.015625 89.835938 92.824219 C 89.929688 92.765625 90.027344 92.71875 90.125 92.667969 C 90.425781 92.511719 90.738281 92.390625 91.070312 92.308594 C 91.117188 92.292969 91.164062 92.273438 91.214844 92.261719 C 91.597656 92.183594 91.984375 92.15625 92.371094 92.179688 C 92.503906 92.179688 92.632812 92.203125 92.761719 92.21875 C 93.003906 92.253906 93.246094 92.308594 93.480469 92.378906 C 93.566406 92.40625 93.648438 92.429688 93.730469 92.460938 C 94.25 92.667969 94.71875 92.957031 95.140625 93.328125 C 95.851562 93.957031 96.316406 94.734375 96.53125 95.660156 Z M 38.449219 95.726562 C 38.449219 95.707031 38.460938 95.6875 38.46875 95.667969 C 38.679688 94.742188 39.140625 93.964844 39.851562 93.332031 C 40.273438 92.960938 40.746094 92.671875 41.269531 92.464844 C 41.339844 92.4375 41.414062 92.417969 41.496094 92.394531 C 41.742188 92.316406 41.996094 92.257812 42.257812 92.226562 C 42.375 92.207031 42.496094 92.195312 42.617188 92.1875 C 43.011719 92.164062 43.398438 92.191406 43.785156 92.269531 C 43.832031 92.28125 43.878906 92.300781 43.929688 92.3125 C 44.257812 92.394531 44.574219 92.515625 44.875 92.675781 C 44.96875 92.722656 45.070312 92.773438 45.160156 92.828125 C 45.484375 93.023438 45.777344 93.25 46.042969 93.515625 C 46.085938 93.558594 46.117188 93.613281 46.160156 93.660156 C 46.375 93.898438 46.5625 94.15625 46.71875 94.433594 C 46.78125 94.535156 46.839844 94.640625 46.890625 94.75 C 47.050781 95.078125 47.167969 95.425781 47.242188 95.785156 C 47.269531 95.925781 47.269531 96.070312 47.285156 96.21875 C 47.304688 96.394531 47.320312 96.570312 47.320312 96.746094 C 47.320312 96.894531 47.292969 97.035156 47.277344 97.175781 C 47.261719 97.34375 47.234375 97.507812 47.203125 97.671875 C 47.164062 97.820312 47.117188 97.960938 47.066406 98.101562 C 47.019531 98.253906 46.960938 98.402344 46.894531 98.550781 C 46.832031 98.683594 46.761719 98.808594 46.6875 98.9375 C 46.601562 99.082031 46.503906 99.222656 46.402344 99.355469 C 46.320312 99.46875 46.230469 99.578125 46.132812 99.679688 C 46.019531 99.804688 45.898438 99.917969 45.769531 100.027344 C 45.664062 100.121094 45.558594 100.214844 45.445312 100.296875 C 45.300781 100.394531 45.148438 100.484375 44.996094 100.5625 C 44.878906 100.625 44.769531 100.699219 44.644531 100.753906 C 44.457031 100.828125 44.265625 100.894531 44.070312 100.949219 C 43.972656 100.976562 43.875 101.015625 43.773438 101.039062 C 43.460938 101.105469 43.148438 101.136719 42.828125 101.136719 C 41.691406 101.132812 40.699219 100.746094 39.855469 99.984375 L 39.855469 99.96875 C 39.148438 99.335938 38.683594 98.558594 38.472656 97.632812 C 38.472656 97.613281 38.457031 97.59375 38.453125 97.574219 C 38.320312 96.957031 38.320312 96.34375 38.453125 95.726562 Z M 29.375 130.289062 L 11.433594 130.289062 L 11.433594 121.320312 C 11.433594 119.558594 11.917969 117.941406 12.882812 116.464844 C 12.988281 116.296875 13.105469 116.144531 13.230469 115.984375 C 13.425781 115.722656 13.632812 115.46875 13.855469 115.226562 C 13.992188 115.085938 14.125 114.941406 14.265625 114.8125 C 14.542969 114.550781 14.835938 114.308594 15.144531 114.085938 C 15.25 114.007812 15.351562 113.917969 15.460938 113.84375 C 15.878906 113.570312 16.316406 113.332031 16.773438 113.132812 C 16.921875 113.0625 17.074219 113.015625 17.222656 112.957031 C 17.578125 112.820312 17.941406 112.710938 18.308594 112.621094 C 18.46875 112.582031 18.628906 112.542969 18.792969 112.511719 C 19.863281 112.292969 20.933594 112.292969 22.003906 112.511719 C 22.167969 112.542969 22.328125 112.578125 22.488281 112.621094 C 22.859375 112.710938 23.21875 112.820312 23.574219 112.957031 C 23.726562 113.015625 23.878906 113.0625 24.023438 113.132812 C 24.484375 113.332031 24.921875 113.570312 25.339844 113.84375 C 25.449219 113.917969 25.546875 114.007812 25.65625 114.085938 C 25.960938 114.308594 26.253906 114.550781 26.53125 114.8125 C 26.671875 114.941406 26.808594 115.085938 26.941406 115.226562 C 27.164062 115.46875 27.375 115.722656 27.570312 115.988281 C 27.6875 116.144531 27.8125 116.296875 27.917969 116.464844 C 28.882812 117.9375 29.367188 119.558594 29.375 121.320312 Z M 15.917969 103.378906 C 15.917969 103.082031 15.945312 102.792969 16.003906 102.503906 C 16.0625 102.214844 16.144531 101.933594 16.257812 101.660156 C 16.371094 101.390625 16.511719 101.132812 16.671875 100.886719 C 16.835938 100.640625 17.023438 100.414062 17.230469 100.207031 C 17.441406 100 17.667969 99.8125 17.910156 99.648438 C 18.15625 99.484375 18.414062 99.347656 18.6875 99.234375 C 18.957031 99.121094 19.238281 99.035156 19.527344 98.980469 C 19.816406 98.921875 20.109375 98.894531 20.402344 98.894531 C 20.699219 98.894531 20.988281 98.921875 21.277344 98.980469 C 21.566406 99.035156 21.847656 99.121094 22.121094 99.234375 C 22.390625 99.347656 22.648438 99.484375 22.894531 99.648438 C 23.140625 99.8125 23.367188 100 23.574219 100.207031 C 23.78125 100.414062 23.96875 100.640625 24.132812 100.886719 C 24.296875 101.132812 24.433594 101.390625 24.546875 101.660156 C 24.660156 101.933594 24.746094 102.214844 24.800781 102.503906 C 24.859375 102.792969 24.886719 103.082031 24.886719 103.378906 C 24.886719 103.671875 24.859375 103.964844 24.800781 104.253906 C 24.746094 104.542969 24.660156 104.824219 24.546875 105.09375 C 24.433594 105.367188 24.296875 105.625 24.132812 105.871094 C 23.96875 106.113281 23.78125 106.339844 23.574219 106.550781 C 23.367188 106.757812 23.140625 106.945312 22.894531 107.109375 C 22.648438 107.269531 22.390625 107.410156 22.121094 107.523438 C 21.847656 107.632812 21.566406 107.71875 21.277344 107.777344 C 20.988281 107.835938 20.699219 107.863281 20.402344 107.863281 C 20.109375 107.863281 19.816406 107.835938 19.527344 107.777344 C 19.238281 107.71875 18.957031 107.632812 18.6875 107.523438 C 18.414062 107.410156 18.15625 107.269531 17.910156 107.109375 C 17.667969 106.945312 17.441406 106.757812 17.230469 106.550781 C 17.023438 106.339844 16.835938 106.113281 16.671875 105.871094 C 16.511719 105.625 16.371094 105.367188 16.257812 105.09375 C 16.144531 104.824219 16.0625 104.542969 16.003906 104.253906 C 15.945312 103.964844 15.917969 103.671875 15.917969 103.378906 Z M 33.058594 105.367188 C 32.933594 105.5 32.8125 105.632812 32.691406 105.769531 C 32.515625 105.96875 32.351562 106.175781 32.191406 106.386719 C 32.078125 106.527344 31.964844 106.671875 31.863281 106.820312 C 31.707031 107.042969 31.558594 107.269531 31.414062 107.492188 C 31.320312 107.640625 31.230469 107.789062 31.144531 107.941406 C 31 108.1875 30.875 108.441406 30.75 108.691406 C 30.679688 108.839844 30.605469 108.984375 30.539062 109.140625 C 30.417969 109.410156 30.316406 109.6875 30.210938 109.964844 C 30.15625 110.109375 30.101562 110.253906 30.050781 110.414062 C 29.957031 110.695312 29.878906 110.984375 29.804688 111.273438 C 29.773438 111.394531 29.734375 111.5 29.707031 111.628906 C 29.601562 111.527344 29.480469 111.441406 29.378906 111.34375 C 29.199219 111.179688 29.019531 111.015625 28.828125 110.863281 C 28.6875 110.75 28.542969 110.640625 28.398438 110.542969 C 28.199219 110.394531 27.996094 110.242188 27.789062 110.09375 C 27.652344 110.003906 27.507812 109.925781 27.367188 109.839844 C 27.230469 109.757812 27.050781 109.640625 26.886719 109.550781 C 27.292969 109.128906 27.648438 108.671875 27.964844 108.179688 C 28.277344 107.6875 28.539062 107.171875 28.753906 106.628906 C 28.964844 106.085938 29.125 105.527344 29.226562 104.953125 C 29.332031 104.378906 29.378906 103.800781 29.371094 103.21875 C 29.359375 102.632812 29.296875 102.058594 29.175781 101.488281 C 29.054688 100.917969 28.878906 100.363281 28.648438 99.828125 C 28.417969 99.289062 28.140625 98.78125 27.8125 98.300781 C 27.480469 97.816406 27.109375 97.371094 26.695312 96.964844 C 26.277344 96.554688 25.828125 96.1875 25.339844 95.867188 C 24.855469 95.546875 24.339844 95.277344 23.800781 95.054688 C 23.261719 94.832031 22.707031 94.667969 22.132812 94.554688 C 21.5625 94.441406 20.984375 94.382812 20.402344 94.382812 C 19.816406 94.382812 19.238281 94.441406 18.667969 94.554688 C 18.09375 94.667969 17.539062 94.832031 17 95.054688 C 16.460938 95.277344 15.945312 95.546875 15.460938 95.867188 C 14.972656 96.1875 14.523438 96.554688 14.105469 96.964844 C 13.691406 97.371094 13.320312 97.816406 12.992188 98.300781 C 12.660156 98.78125 12.382812 99.289062 12.152344 99.828125 C 11.925781 100.363281 11.75 100.917969 11.628906 101.488281 C 11.503906 102.058594 11.441406 102.632812 11.429688 103.21875 C 11.421875 103.800781 11.46875 104.378906 11.574219 104.953125 C 11.675781 105.527344 11.835938 106.085938 12.046875 106.628906 C 12.261719 107.171875 12.523438 107.6875 12.839844 108.179688 C 13.152344 108.671875 13.511719 109.128906 13.914062 109.550781 C 13.863281 109.578125 13.820312 109.609375 13.769531 109.636719 C 13.667969 109.695312 13.570312 109.757812 13.472656 109.820312 C 13.105469 110.039062 12.753906 110.273438 12.414062 110.527344 C 12.308594 110.605469 12.203125 110.683594 12.097656 110.75 C 11.253906 111.417969 10.496094 112.175781 9.832031 113.019531 L 9.640625 113.277344 C 9.351562 113.664062 9.085938 114.0625 8.839844 114.476562 C 8.816406 114.515625 8.785156 114.554688 8.761719 114.59375 L 4.703125 114.59375 L 4.703125 38.34375 L 36.101562 38.34375 L 36.101562 90.753906 C 36.035156 90.828125 35.992188 90.914062 35.929688 90.988281 C 35.667969 91.296875 35.433594 91.621094 35.21875 91.960938 C 35.128906 92.101562 35.058594 92.253906 34.976562 92.40625 C 34.792969 92.730469 34.628906 93.066406 34.488281 93.410156 C 34.402344 93.632812 34.34375 93.859375 34.265625 94.101562 C 34.179688 94.390625 34.078125 94.671875 34.019531 94.976562 C 33.789062 96.097656 33.789062 97.21875 34.019531 98.339844 C 34.078125 98.640625 34.179688 98.921875 34.265625 99.210938 C 34.335938 99.4375 34.390625 99.679688 34.488281 99.90625 C 34.628906 100.25 34.792969 100.582031 34.976562 100.90625 C 35.058594 101.054688 35.128906 101.207031 35.21875 101.355469 C 35.433594 101.695312 35.667969 102.019531 35.929688 102.328125 C 35.992188 102.402344 36.035156 102.488281 36.101562 102.5625 L 36.101562 102.964844 C 36.039062 102.996094 35.988281 103.039062 35.929688 103.074219 C 35.628906 103.253906 35.335938 103.441406 35.050781 103.644531 C 34.933594 103.726562 34.828125 103.8125 34.710938 103.898438 C 34.472656 104.082031 34.238281 104.265625 34.015625 104.460938 C 33.886719 104.574219 33.761719 104.6875 33.636719 104.804688 C 33.4375 104.976562 33.246094 105.171875 33.058594 105.367188 Z M 51.800781 130.289062 L 33.859375 130.289062 L 33.859375 114.589844 C 33.863281 114.050781 33.917969 113.515625 34.019531 112.984375 C 34.050781 112.820312 34.089844 112.664062 34.128906 112.5 C 34.21875 112.132812 34.332031 111.769531 34.464844 111.414062 C 34.523438 111.261719 34.574219 111.109375 34.640625 110.964844 C 34.84375 110.507812 35.078125 110.070312 35.355469 109.652344 C 35.429688 109.539062 35.519531 109.441406 35.597656 109.335938 C 35.820312 109.027344 36.0625 108.734375 36.320312 108.457031 C 36.453125 108.316406 36.59375 108.183594 36.734375 108.046875 C 36.980469 107.824219 37.234375 107.613281 37.5 107.417969 C 37.65625 107.304688 37.808594 107.175781 37.976562 107.070312 C 39.449219 106.105469 41.066406 105.625 42.828125 105.621094 C 43.417969 105.621094 44 105.679688 44.578125 105.792969 C 45.15625 105.90625 45.71875 106.078125 46.261719 106.304688 C 46.804688 106.527344 47.324219 106.804688 47.8125 107.132812 C 48.300781 107.460938 48.753906 107.832031 49.171875 108.25 C 49.589844 108.664062 49.960938 109.117188 50.289062 109.609375 C 50.613281 110.097656 50.890625 110.613281 51.117188 111.160156 C 51.339844 111.703125 51.511719 112.261719 51.625 112.839844 C 51.742188 113.417969 51.800781 114.003906 51.800781 114.589844 Z M 78.710938 130.289062 L 56.285156 130.289062 L 56.285156 114.589844 C 56.285156 113.855469 56.355469 113.125 56.5 112.402344 C 56.644531 111.679688 56.855469 110.980469 57.136719 110.300781 C 57.417969 109.621094 57.765625 108.972656 58.175781 108.363281 C 58.582031 107.75 59.046875 107.183594 59.566406 106.664062 C 60.089844 106.140625 60.65625 105.675781 61.265625 105.269531 C 61.878906 104.859375 62.527344 104.511719 63.207031 104.230469 C 63.886719 103.949219 64.585938 103.738281 65.308594 103.59375 C 66.03125 103.449219 66.761719 103.378906 67.496094 103.378906 C 68.234375 103.378906 68.960938 103.449219 69.683594 103.59375 C 70.40625 103.738281 71.109375 103.949219 71.789062 104.230469 C 72.46875 104.511719 73.113281 104.859375 73.726562 105.269531 C 74.339844 105.675781 74.90625 106.140625 75.425781 106.664062 C 75.945312 107.183594 76.410156 107.75 76.820312 108.363281 C 77.230469 108.972656 77.574219 109.621094 77.855469 110.300781 C 78.136719 110.980469 78.351562 111.679688 78.496094 112.402344 C 78.636719 113.125 78.710938 113.855469 78.710938 114.589844 Z M 60.769531 92.164062 C 60.769531 91.722656 60.8125 91.285156 60.898438 90.851562 C 60.984375 90.417969 61.113281 90 61.28125 89.589844 C 61.449219 89.183594 61.65625 88.796875 61.902344 88.425781 C 62.148438 88.058594 62.425781 87.71875 62.738281 87.40625 C 63.050781 87.097656 63.390625 86.816406 63.757812 86.570312 C 64.125 86.324219 64.515625 86.117188 64.921875 85.949219 C 65.332031 85.78125 65.75 85.652344 66.183594 85.566406 C 66.617188 85.480469 67.054688 85.4375 67.496094 85.4375 C 67.9375 85.4375 68.375 85.480469 68.808594 85.566406 C 69.242188 85.652344 69.664062 85.78125 70.070312 85.949219 C 70.480469 86.117188 70.867188 86.324219 71.234375 86.570312 C 71.601562 86.816406 71.941406 87.097656 72.253906 87.40625 C 72.566406 87.71875 72.84375 88.058594 73.089844 88.425781 C 73.335938 88.796875 73.542969 89.183594 73.710938 89.589844 C 73.882812 90 74.007812 90.417969 74.09375 90.851562 C 74.183594 91.285156 74.226562 91.722656 74.226562 92.164062 C 74.226562 92.605469 74.183594 93.042969 74.09375 93.476562 C 74.007812 93.910156 73.882812 94.332031 73.710938 94.738281 C 73.542969 95.148438 73.335938 95.535156 73.089844 95.902344 C 72.84375 96.269531 72.566406 96.609375 72.253906 96.921875 C 71.941406 97.234375 71.601562 97.515625 71.234375 97.757812 C 70.867188 98.003906 70.480469 98.210938 70.070312 98.382812 C 69.664062 98.550781 69.242188 98.675781 68.808594 98.765625 C 68.375 98.851562 67.9375 98.894531 67.496094 98.894531 C 67.054688 98.894531 66.617188 98.851562 66.183594 98.765625 C 65.75 98.675781 65.332031 98.550781 64.921875 98.382812 C 64.515625 98.210938 64.125 98.003906 63.757812 97.757812 C 63.390625 97.515625 63.050781 97.234375 62.738281 96.921875 C 62.425781 96.609375 62.148438 96.269531 61.902344 95.902344 C 61.65625 95.535156 61.449219 95.148438 61.28125 94.738281 C 61.113281 94.332031 60.984375 93.910156 60.898438 93.476562 C 60.8125 93.042969 60.769531 92.605469 60.769531 92.164062 Z M 82.328125 105.4375 C 82.207031 105.570312 82.085938 105.699219 81.96875 105.832031 C 81.765625 106.074219 81.570312 106.324219 81.378906 106.582031 C 81.308594 106.675781 81.226562 106.765625 81.15625 106.863281 C 81.105469 106.777344 81.039062 106.699219 80.988281 106.613281 C 80.738281 106.191406 80.476562 105.785156 80.1875 105.390625 C 80.082031 105.25 79.976562 105.105469 79.863281 104.960938 C 79.550781 104.554688 79.214844 104.167969 78.859375 103.796875 C 78.789062 103.722656 78.726562 103.640625 78.65625 103.570312 C 78.226562 103.136719 77.773438 102.730469 77.296875 102.351562 C 77.171875 102.253906 77.046875 102.164062 76.921875 102.070312 C 76.546875 101.789062 76.160156 101.519531 75.761719 101.273438 C 75.605469 101.179688 75.453125 101.082031 75.296875 100.988281 C 75.105469 100.878906 74.914062 100.765625 74.71875 100.671875 C 75.300781 100.179688 75.828125 99.632812 76.300781 99.035156 C 76.773438 98.4375 77.179688 97.792969 77.523438 97.113281 C 77.863281 96.429688 78.132812 95.71875 78.328125 94.980469 C 78.527344 94.246094 78.644531 93.496094 78.691406 92.734375 C 78.734375 91.972656 78.699219 91.214844 78.585938 90.457031 C 78.476562 89.703125 78.289062 88.96875 78.027344 88.25 C 77.765625 87.535156 77.433594 86.851562 77.035156 86.203125 C 76.632812 85.550781 76.171875 84.949219 75.644531 84.394531 C 75.121094 83.839844 74.546875 83.34375 73.921875 82.90625 C 73.296875 82.46875 72.632812 82.101562 71.933594 81.796875 C 71.230469 81.496094 70.507812 81.269531 69.761719 81.113281 C 69.011719 80.960938 68.257812 80.882812 67.496094 80.882812 C 66.730469 80.882812 65.976562 80.960938 65.230469 81.113281 C 64.480469 81.269531 63.757812 81.496094 63.058594 81.796875 C 62.355469 82.101562 61.691406 82.46875 61.066406 82.90625 C 60.441406 83.34375 59.867188 83.839844 59.34375 84.394531 C 58.820312 84.949219 58.355469 85.550781 57.957031 86.203125 C 57.554688 86.851562 57.222656 87.535156 56.960938 88.25 C 56.699219 88.96875 56.511719 89.703125 56.402344 90.457031 C 56.289062 91.214844 56.257812 91.972656 56.300781 92.734375 C 56.34375 93.496094 56.464844 94.246094 56.660156 94.980469 C 56.855469 95.71875 57.125 96.429688 57.46875 97.113281 C 57.808594 97.792969 58.214844 98.4375 58.6875 99.035156 C 59.160156 99.632812 59.6875 100.179688 60.269531 100.671875 C 60.078125 100.773438 59.882812 100.878906 59.691406 100.988281 C 59.535156 101.082031 59.382812 101.179688 59.226562 101.273438 C 58.832031 101.523438 58.445312 101.789062 58.070312 102.070312 C 57.945312 102.164062 57.816406 102.253906 57.691406 102.351562 C 57.214844 102.730469 56.761719 103.136719 56.332031 103.570312 C 56.265625 103.644531 56.199219 103.722656 56.128906 103.796875 C 55.773438 104.167969 55.441406 104.554688 55.125 104.960938 C 55.011719 105.105469 54.902344 105.25 54.800781 105.394531 C 54.515625 105.785156 54.25 106.191406 54 106.613281 C 53.949219 106.699219 53.882812 106.777344 53.835938 106.863281 C 53.765625 106.765625 53.683594 106.675781 53.609375 106.582031 C 53.421875 106.324219 53.226562 106.074219 53.019531 105.832031 C 52.902344 105.699219 52.78125 105.570312 52.660156 105.4375 C 52.453125 105.214844 52.242188 105.003906 52.019531 104.796875 C 51.890625 104.675781 51.761719 104.554688 51.625 104.4375 C 51.390625 104.234375 51.144531 104.039062 50.894531 103.847656 C 50.765625 103.753906 50.636719 103.648438 50.503906 103.558594 C 50.203125 103.347656 49.894531 103.15625 49.578125 102.972656 C 49.496094 102.921875 49.417969 102.867188 49.335938 102.820312 C 49.457031 102.695312 49.5625 102.566406 49.683594 102.433594 C 49.808594 102.296875 49.839844 102.179688 49.933594 102.058594 C 50.148438 101.78125 50.34375 101.488281 50.519531 101.183594 C 50.65625 100.957031 50.785156 100.734375 50.898438 100.488281 C 51.054688 100.152344 51.1875 99.8125 51.300781 99.460938 C 51.378906 99.234375 51.460938 98.996094 51.523438 98.753906 C 51.605469 98.378906 51.667969 98 51.703125 97.613281 C 51.726562 97.367188 51.769531 97.128906 51.777344 96.882812 C 51.777344 96.804688 51.800781 96.730469 51.800781 96.65625 C 51.785156 96.339844 51.75 96.023438 51.703125 95.707031 C 51.683594 95.503906 51.703125 95.300781 51.664062 95.097656 C 51.664062 95.039062 51.636719 94.988281 51.625 94.933594 C 51.605469 94.835938 51.574219 94.742188 51.550781 94.644531 C 51.449219 94.195312 51.316406 93.757812 51.144531 93.332031 C 51.101562 93.226562 51.058594 93.121094 51.011719 93.019531 C 50.816406 92.578125 50.585938 92.152344 50.320312 91.746094 C 50.292969 91.703125 50.269531 91.65625 50.242188 91.613281 C 49.925781 91.15625 49.574219 90.730469 49.183594 90.332031 C 49.160156 90.3125 49.132812 90.289062 49.109375 90.269531 C 48.753906 89.921875 48.371094 89.605469 47.960938 89.320312 L 47.679688 89.132812 C 47.300781 88.886719 46.902344 88.671875 46.488281 88.484375 C 46.402344 88.445312 46.324219 88.402344 46.238281 88.367188 C 45.75 88.164062 45.25 88.003906 44.734375 87.890625 C 44.714844 87.886719 44.699219 87.886719 44.679688 87.890625 C 44.070312 87.753906 43.453125 87.683594 42.828125 87.679688 C 42.785156 87.679688 42.746094 87.691406 42.707031 87.691406 C 42.554688 87.691406 42.40625 87.726562 42.257812 87.738281 C 41.753906 87.765625 41.253906 87.835938 40.761719 87.945312 C 40.703125 87.957031 40.648438 87.945312 40.589844 87.96875 L 40.589844 4.703125 L 94.40625 4.703125 L 94.40625 87.96875 C 94.351562 87.953125 94.292969 87.96875 94.238281 87.945312 C 93.75 87.835938 93.257812 87.769531 92.757812 87.742188 C 92.597656 87.730469 92.445312 87.695312 92.28125 87.691406 C 92.242188 87.691406 92.207031 87.679688 92.164062 87.679688 C 91.542969 87.679688 90.925781 87.746094 90.316406 87.878906 C 90.296875 87.875 90.277344 87.875 90.257812 87.878906 C 89.742188 87.992188 89.242188 88.152344 88.757812 88.359375 C 88.671875 88.390625 88.589844 88.4375 88.503906 88.472656 C 88.089844 88.660156 87.695312 88.875 87.3125 89.121094 L 87.03125 89.308594 C 86.621094 89.59375 86.242188 89.910156 85.882812 90.257812 C 85.863281 90.28125 85.835938 90.300781 85.808594 90.320312 C 85.417969 90.71875 85.066406 91.144531 84.753906 91.601562 C 84.722656 91.644531 84.703125 91.691406 84.671875 91.734375 C 84.40625 92.140625 84.179688 92.566406 83.980469 93.007812 C 83.933594 93.113281 83.890625 93.21875 83.851562 93.324219 C 83.679688 93.75 83.542969 94.183594 83.441406 94.632812 C 83.417969 94.730469 83.386719 94.824219 83.371094 94.921875 C 83.359375 94.976562 83.339844 95.027344 83.328125 95.085938 C 83.292969 95.289062 83.3125 95.492188 83.292969 95.699219 C 83.242188 96.011719 83.210938 96.332031 83.195312 96.652344 C 83.195312 96.730469 83.21875 96.804688 83.21875 96.875 C 83.21875 97.125 83.265625 97.363281 83.292969 97.609375 C 83.328125 97.992188 83.386719 98.371094 83.472656 98.746094 C 83.527344 98.988281 83.613281 99.21875 83.695312 99.453125 C 83.808594 99.804688 83.941406 100.148438 84.09375 100.480469 C 84.207031 100.722656 84.339844 100.949219 84.472656 101.175781 C 84.652344 101.480469 84.847656 101.773438 85.0625 102.054688 C 85.152344 102.171875 85.214844 102.3125 85.308594 102.425781 C 85.40625 102.539062 85.535156 102.6875 85.65625 102.8125 C 85.574219 102.859375 85.5 102.917969 85.417969 102.964844 C 85.101562 103.148438 84.789062 103.34375 84.492188 103.550781 C 84.355469 103.644531 84.230469 103.746094 84.097656 103.84375 C 83.851562 104.03125 83.601562 104.226562 83.367188 104.429688 C 83.234375 104.546875 83.101562 104.667969 82.972656 104.792969 C 82.746094 105.003906 82.535156 105.21875 82.328125 105.4375 Z M 101.136719 116.832031 L 101.136719 130.289062 L 83.195312 130.289062 L 83.195312 114.589844 C 83.195312 114.003906 83.253906 113.417969 83.367188 112.839844 C 83.480469 112.261719 83.652344 111.703125 83.878906 111.160156 C 84.101562 110.613281 84.378906 110.097656 84.707031 109.609375 C 85.035156 109.117188 85.40625 108.664062 85.824219 108.25 C 86.238281 107.832031 86.691406 107.460938 87.183594 107.132812 C 87.671875 106.804688 88.1875 106.527344 88.734375 106.304688 C 89.277344 106.078125 89.835938 105.90625 90.414062 105.792969 C 90.992188 105.679688 91.578125 105.621094 92.164062 105.621094 C 93.925781 105.621094 95.542969 106.105469 97.019531 107.070312 C 97.1875 107.175781 97.339844 107.292969 97.496094 107.417969 C 97.761719 107.613281 98.015625 107.820312 98.257812 108.046875 C 98.398438 108.179688 98.542969 108.3125 98.671875 108.457031 C 98.933594 108.734375 99.175781 109.023438 99.398438 109.332031 C 99.476562 109.441406 99.566406 109.539062 99.640625 109.648438 C 99.914062 110.066406 100.152344 110.503906 100.351562 110.960938 C 100.421875 111.109375 100.46875 111.261719 100.527344 111.410156 C 100.660156 111.765625 100.773438 112.128906 100.863281 112.5 C 100.90625 112.660156 100.941406 112.820312 100.972656 112.984375 C 101.078125 113.515625 101.128906 114.050781 101.136719 114.589844 Z M 123.5625 130.289062 L 105.621094 130.289062 L 105.621094 121.320312 C 105.621094 119.558594 106.105469 117.941406 107.070312 116.464844 C 107.175781 116.296875 107.292969 116.144531 107.417969 115.984375 C 107.613281 115.722656 107.824219 115.46875 108.046875 115.226562 C 108.179688 115.085938 108.3125 114.941406 108.457031 114.8125 C 108.734375 114.550781 109.023438 114.308594 109.332031 114.085938 C 109.441406 114.007812 109.539062 113.917969 109.648438 113.84375 C 110.066406 113.570312 110.503906 113.332031 110.960938 113.132812 C 111.109375 113.0625 111.261719 113.015625 111.410156 112.957031 C 111.765625 112.820312 112.128906 112.710938 112.496094 112.621094 C 112.65625 112.582031 112.816406 112.542969 112.980469 112.511719 C 114.050781 112.292969 115.121094 112.292969 116.191406 112.511719 C 116.355469 112.542969 116.515625 112.578125 116.675781 112.621094 C 117.046875 112.710938 117.410156 112.820312 117.765625 112.957031 C 117.914062 113.015625 118.066406 113.0625 118.214844 113.132812 C 118.671875 113.332031 119.109375 113.570312 119.527344 113.84375 C 119.636719 113.917969 119.734375 114.007812 119.84375 114.085938 C 120.152344 114.308594 120.441406 114.550781 120.71875 114.8125 C 120.863281 114.941406 120.996094 115.085938 121.128906 115.226562 C 121.351562 115.46875 121.5625 115.722656 121.757812 115.988281 C 121.875 116.144531 122 116.296875 122.105469 116.464844 C 123.070312 117.9375 123.558594 119.558594 123.5625 121.320312 Z M 110.105469 103.378906 C 110.105469 103.082031 110.132812 102.792969 110.191406 102.503906 C 110.25 102.214844 110.335938 101.933594 110.449219 101.660156 C 110.558594 101.390625 110.699219 101.132812 110.863281 100.886719 C 111.027344 100.640625 111.210938 100.414062 111.417969 100.207031 C 111.628906 100 111.855469 99.8125 112.097656 99.648438 C 112.34375 99.484375 112.601562 99.347656 112.875 99.234375 C 113.148438 99.121094 113.425781 99.035156 113.714844 98.980469 C 114.003906 98.921875 114.296875 98.894531 114.589844 98.894531 C 114.886719 98.894531 115.175781 98.921875 115.464844 98.980469 C 115.753906 99.035156 116.035156 99.121094 116.308594 99.234375 C 116.578125 99.347656 116.839844 99.484375 117.082031 99.648438 C 117.328125 99.8125 117.554688 100 117.761719 100.207031 C 117.972656 100.414062 118.15625 100.640625 118.320312 100.886719 C 118.484375 101.132812 118.621094 101.390625 118.734375 101.660156 C 118.847656 101.933594 118.933594 102.214844 118.988281 102.503906 C 119.046875 102.792969 119.078125 103.082031 119.078125 103.378906 C 119.078125 103.671875 119.046875 103.964844 118.988281 104.253906 C 118.933594 104.542969 118.847656 104.824219 118.734375 105.09375 C 118.621094 105.367188 118.484375 105.625 118.320312 105.871094 C 118.15625 106.113281 117.972656 106.339844 117.761719 106.550781 C 117.554688 106.757812 117.328125 106.945312 117.082031 107.109375 C 116.839844 107.269531 116.578125 107.410156 116.308594 107.523438 C 116.035156 107.632812 115.753906 107.71875 115.464844 107.777344 C 115.175781 107.835938 114.886719 107.863281 114.589844 107.863281 C 114.296875 107.863281 114.003906 107.835938 113.714844 107.777344 C 113.425781 107.71875 113.148438 107.632812 112.875 107.523438 C 112.601562 107.410156 112.34375 107.269531 112.097656 107.109375 C 111.855469 106.945312 111.628906 106.757812 111.417969 106.550781 C 111.210938 106.339844 111.027344 106.113281 110.863281 105.871094 C 110.699219 105.625 110.558594 105.367188 110.449219 105.09375 C 110.335938 104.824219 110.25 104.542969 110.191406 104.253906 C 110.132812 103.964844 110.105469 103.671875 110.105469 103.378906 Z M 130.289062 114.589844 L 126.230469 114.589844 C 126.210938 114.550781 126.179688 114.515625 126.15625 114.472656 C 125.910156 114.0625 125.640625 113.660156 125.351562 113.273438 L 125.164062 113.019531 C 124.496094 112.171875 123.734375 111.417969 122.890625 110.75 C 122.785156 110.671875 122.679688 110.59375 122.574219 110.527344 C 122.234375 110.273438 121.882812 110.039062 121.515625 109.820312 C 121.417969 109.757812 121.320312 109.695312 121.21875 109.636719 C 121.167969 109.609375 121.125 109.578125 121.074219 109.550781 C 121.476562 109.128906 121.835938 108.671875 122.148438 108.179688 C 122.460938 107.6875 122.726562 107.171875 122.9375 106.628906 C 123.152344 106.085938 123.308594 105.527344 123.414062 104.953125 C 123.515625 104.378906 123.566406 103.800781 123.554688 103.21875 C 123.546875 102.632812 123.480469 102.058594 123.359375 101.488281 C 123.238281 100.917969 123.0625 100.363281 122.832031 99.828125 C 122.605469 99.289062 122.324219 98.78125 121.996094 98.300781 C 121.667969 97.816406 121.296875 97.371094 120.878906 96.964844 C 120.464844 96.554688 120.015625 96.1875 119.527344 95.867188 C 119.039062 95.546875 118.527344 95.277344 117.988281 95.054688 C 117.449219 94.832031 116.890625 94.667969 116.320312 94.554688 C 115.746094 94.441406 115.167969 94.382812 114.585938 94.382812 C 114.003906 94.382812 113.425781 94.441406 112.855469 94.554688 C 112.28125 94.667969 111.726562 94.832031 111.1875 95.054688 C 110.644531 95.277344 110.132812 95.546875 109.644531 95.867188 C 109.160156 96.1875 108.707031 96.554688 108.292969 96.964844 C 107.878906 97.371094 107.503906 97.816406 107.175781 98.300781 C 106.847656 98.78125 106.570312 99.289062 106.339844 99.828125 C 106.109375 100.363281 105.933594 100.917969 105.8125 101.488281 C 105.691406 102.058594 105.625 102.632812 105.617188 103.21875 C 105.609375 103.800781 105.65625 104.378906 105.757812 104.953125 C 105.863281 105.527344 106.023438 106.085938 106.234375 106.628906 C 106.449219 107.171875 106.710938 107.6875 107.023438 108.179688 C 107.339844 108.671875 107.695312 109.128906 108.097656 109.550781 C 107.933594 109.640625 107.777344 109.746094 107.617188 109.839844 C 107.457031 109.9375 107.335938 110.003906 107.203125 110.09375 C 106.992188 110.234375 106.789062 110.386719 106.585938 110.542969 C 106.445312 110.648438 106.296875 110.75 106.160156 110.863281 C 105.96875 111.015625 105.789062 111.179688 105.605469 111.34375 C 105.5 111.441406 105.382812 111.527344 105.28125 111.628906 C 105.253906 111.507812 105.210938 111.40625 105.179688 111.273438 C 105.105469 110.984375 105.03125 110.695312 104.9375 110.414062 C 104.886719 110.265625 104.832031 110.121094 104.777344 109.964844 C 104.675781 109.6875 104.570312 109.410156 104.449219 109.140625 C 104.382812 108.992188 104.308594 108.847656 104.238281 108.691406 C 104.113281 108.441406 103.984375 108.1875 103.84375 107.941406 C 103.757812 107.789062 103.664062 107.644531 103.574219 107.492188 C 103.429688 107.269531 103.28125 107.042969 103.125 106.820312 C 103.019531 106.671875 102.902344 106.527344 102.796875 106.386719 C 102.636719 106.175781 102.46875 105.96875 102.296875 105.769531 C 102.175781 105.632812 102.054688 105.5 101.925781 105.367188 C 101.742188 105.167969 101.546875 104.976562 101.347656 104.792969 C 101.226562 104.675781 101.101562 104.566406 100.972656 104.449219 C 100.746094 104.253906 100.523438 104.066406 100.273438 103.886719 C 100.164062 103.800781 100.050781 103.710938 99.9375 103.632812 C 99.652344 103.425781 99.355469 103.242188 99.058594 103.058594 C 99 103.027344 98.945312 102.984375 98.886719 102.949219 L 98.886719 102.546875 C 98.953125 102.472656 98.996094 102.386719 99.058594 102.3125 C 99.316406 102.003906 99.554688 101.679688 99.769531 101.34375 C 99.859375 101.199219 99.929688 101.046875 100.011719 100.894531 C 100.195312 100.570312 100.355469 100.234375 100.5 99.890625 C 100.585938 99.667969 100.640625 99.441406 100.722656 99.199219 C 100.808594 98.910156 100.910156 98.628906 100.96875 98.324219 C 101.195312 97.203125 101.195312 96.082031 100.96875 94.960938 C 100.910156 94.660156 100.808594 94.378906 100.722656 94.089844 C 100.652344 93.867188 100.59375 93.621094 100.5 93.398438 C 100.355469 93.050781 100.195312 92.71875 100.011719 92.394531 C 99.929688 92.246094 99.859375 92.09375 99.769531 91.945312 C 99.554688 91.605469 99.316406 91.28125 99.058594 90.972656 C 98.996094 90.902344 98.953125 90.8125 98.886719 90.738281 L 98.886719 38.34375 L 130.289062 38.34375 Z M 130.289062 114.589844 " fill-opacity="1" fill-rule="nonzero"/></g><path fill="#ffffff" d="M 105.621094 51.800781 L 110.105469 51.800781 L 110.105469 87.679688 L 105.621094 87.679688 Z M 105.621094 51.800781 " fill-opacity="1" fill-rule="nonzero"/><path fill="#ffffff" d="M 119.078125 51.800781 L 123.5625 51.800781 L 123.5625 87.679688 L 119.078125 87.679688 Z M 119.078125 51.800781 " fill-opacity="1" fill-rule="nonzero"/><path fill="#ffffff" d="M 11.433594 51.800781 L 15.917969 51.800781 L 15.917969 87.679688 L 11.433594 87.679688 Z M 11.433594 51.800781 " fill-opacity="1" fill-rule="nonzero"/><path fill="#ffffff" d="M 24.886719 51.800781 L 29.375 51.800781 L 29.375 87.679688 L 24.886719 87.679688 Z M 24.886719 51.800781 " fill-opacity="1" fill-rule="nonzero"/><path fill="#ffffff" d="M 83.195312 11.433594 C 83.195312 11.136719 83.136719 10.847656 83.023438 10.574219 C 82.910156 10.300781 82.75 10.058594 82.539062 9.847656 C 82.328125 9.636719 82.085938 9.472656 81.8125 9.359375 C 81.535156 9.246094 81.25 9.191406 80.953125 9.191406 L 54.042969 9.191406 C 53.746094 9.191406 53.457031 9.246094 53.183594 9.359375 C 52.910156 9.472656 52.667969 9.636719 52.457031 9.847656 C 52.246094 10.058594 52.082031 10.300781 51.96875 10.574219 C 51.855469 10.847656 51.800781 11.136719 51.800781 11.433594 L 51.800781 29.375 C 51.800781 29.671875 51.855469 29.957031 51.96875 30.230469 C 52.082031 30.507812 52.246094 30.75 52.457031 30.957031 C 52.667969 31.167969 52.910156 31.332031 53.183594 31.445312 C 53.457031 31.558594 53.746094 31.617188 54.042969 31.617188 L 80.953125 31.617188 C 81.25 31.617188 81.535156 31.558594 81.8125 31.445312 C 82.085938 31.332031 82.328125 31.167969 82.539062 30.957031 C 82.75 30.75 82.910156 30.507812 83.023438 30.230469 C 83.136719 29.957031 83.195312 29.671875 83.195312 29.375 Z M 78.710938 27.128906 L 56.285156 27.128906 L 56.285156 13.675781 L 78.710938 13.675781 Z M 78.710938 27.128906 " fill-opacity="1" fill-rule="nonzero"/></g></g></g></svg>