<svg xmlns="http://www.w3.org/2000/svg" xmlns:xlink="http://www.w3.org/1999/xlink" width="500" zoomAndPan="magnify" viewBox="0 0 375 374.999991" height="500" preserveAspectRatio="xMidYMid meet" version="1.0"><defs><filter x="0%" y="0%" width="100%" height="100%" id="f8be738ce3"><feColorMatrix values="0 0 0 0 1 0 0 0 0 1 0 0 0 0 1 0 0 0 1 0" color-interpolation-filters="sRGB"/></filter><mask id="dfae81c6e1"><g filter="url(#f8be738ce3)"><rect x="-37.5" width="450" fill="#000000" y="-37.499999" height="449.999989" fill-opacity="0.19"/></g></mask><clipPath id="b802252097"><path d="M 0 0 L 243 0 L 243 243 L 0 243 Z M 0 0 " clip-rule="nonzero"/></clipPath><clipPath id="49e47b4fc4"><path d="M 121.5 0 C 54.398438 0 0 54.398438 0 121.5 C 0 188.601562 54.398438 243 121.5 243 C 188.601562 243 243 188.601562 243 121.5 C 243 54.398438 188.601562 0 121.5 0 Z M 121.5 0 " clip-rule="nonzero"/></clipPath><clipPath id="4ee7bb0be0"><rect x="0" width="244" y="0" height="244"/></clipPath><clipPath id="8f881e2366"><path d="M 82.929688 82.929688 L 292.070312 82.929688 L 292.070312 292.070312 L 82.929688 292.070312 Z M 82.929688 82.929688 " clip-rule="nonzero"/></clipPath><clipPath id="40c4cf669f"><path d="M 187.5 82.929688 C 129.746094 82.929688 82.929688 129.746094 82.929688 187.5 C 82.929688 245.253906 129.746094 292.070312 187.5 292.070312 C 245.253906 292.070312 292.070312 245.253906 292.070312 187.5 C 292.070312 129.746094 245.253906 82.929688 187.5 82.929688 Z M 187.5 82.929688 " clip-rule="nonzero"/></clipPath><radialGradient gradientTransform="matrix(1, 0, 0, 1, 82.928264, 82.928258)" gradientUnits="userSpaceOnUse" r="147.886493" cx="104.571736" id="1968323f9e" cy="104.571736" fx="104.571736" fy="104.571736"><stop stop-opacity="1" stop-color="rgb(15.637207%, 66.973877%, 15.725708%)" offset="0"/><stop stop-opacity="1" stop-color="rgb(15.484619%, 66.664124%, 15.794373%)" offset="0.0078125"/><stop stop-opacity="1" stop-color="rgb(15.299988%, 66.291809%, 15.87677%)" offset="0.0195312"/><stop stop-opacity="1" stop-color="rgb(15.116882%, 65.919495%, 15.959167%)" offset="0.03125"/><stop stop-opacity="1" stop-color="rgb(14.932251%, 65.545654%, 16.041565%)" offset="0.0429688"/><stop stop-opacity="1" stop-color="rgb(14.74762%, 65.17334%, 16.122437%)" offset="0.0546875"/><stop stop-opacity="1" stop-color="rgb(14.564514%, 64.801025%, 16.204834%)" offset="0.0664062"/><stop stop-opacity="1" stop-color="rgb(14.379883%, 64.428711%, 16.287231%)" offset="0.078125"/><stop stop-opacity="1" stop-color="rgb(14.196777%, 64.056396%, 16.369629%)" offset="0.0898438"/><stop stop-opacity="1" stop-color="rgb(14.012146%, 63.682556%, 16.4505%)" offset="0.101562"/><stop stop-opacity="1" stop-color="rgb(13.829041%, 63.310242%, 16.532898%)" offset="0.113281"/><stop stop-opacity="1" stop-color="rgb(13.644409%, 62.937927%, 16.615295%)" offset="0.125"/><stop stop-opacity="1" stop-color="rgb(13.459778%, 62.565613%, 16.697693%)" offset="0.136719"/><stop stop-opacity="1" stop-color="rgb(13.276672%, 62.191772%, 16.778564%)" offset="0.148438"/><stop stop-opacity="1" stop-color="rgb(13.092041%, 61.819458%, 16.860962%)" offset="0.160156"/><stop stop-opacity="1" stop-color="rgb(12.908936%, 61.447144%, 16.943359%)" offset="0.171875"/><stop stop-opacity="1" stop-color="rgb(12.724304%, 61.074829%, 17.025757%)" offset="0.183594"/><stop stop-opacity="1" stop-color="rgb(12.539673%, 60.702515%, 17.106628%)" offset="0.195312"/><stop stop-opacity="1" stop-color="rgb(12.356567%, 60.328674%, 17.189026%)" offset="0.207031"/><stop stop-opacity="1" stop-color="rgb(12.171936%, 59.95636%, 17.271423%)" offset="0.21875"/><stop stop-opacity="1" stop-color="rgb(11.988831%, 59.584045%, 17.353821%)" offset="0.230469"/><stop stop-opacity="1" stop-color="rgb(11.804199%, 59.211731%, 17.434692%)" offset="0.242188"/><stop stop-opacity="1" stop-color="rgb(11.651611%, 58.900452%, 17.503357%)" offset="0.253906"/><stop stop-opacity="1" stop-color="rgb(11.528015%, 58.651733%, 17.558289%)" offset="0.261719"/><stop stop-opacity="1" stop-color="rgb(11.405945%, 58.403015%, 17.61322%)" offset="0.269531"/><stop stop-opacity="1" stop-color="rgb(11.283875%, 58.154297%, 17.668152%)" offset="0.277344"/><stop stop-opacity="1" stop-color="rgb(11.160278%, 57.907104%, 17.723083%)" offset="0.285156"/><stop stop-opacity="1" stop-color="rgb(11.038208%, 57.658386%, 17.776489%)" offset="0.292969"/><stop stop-opacity="1" stop-color="rgb(10.914612%, 57.409668%, 17.831421%)" offset="0.300781"/><stop stop-opacity="1" stop-color="rgb(10.792542%, 57.16095%, 17.886353%)" offset="0.308594"/><stop stop-opacity="1" stop-color="rgb(10.670471%, 56.912231%, 17.941284%)" offset="0.316406"/><stop stop-opacity="1" stop-color="rgb(10.546875%, 56.663513%, 17.996216%)" offset="0.324219"/><stop stop-opacity="1" stop-color="rgb(10.424805%, 56.416321%, 18.051147%)" offset="0.332031"/><stop stop-opacity="1" stop-color="rgb(10.302734%, 56.167603%, 18.106079%)" offset="0.339844"/><stop stop-opacity="1" stop-color="rgb(10.179138%, 55.918884%, 18.159485%)" offset="0.347656"/><stop stop-opacity="1" stop-color="rgb(10.057068%, 55.670166%, 18.214417%)" offset="0.355469"/><stop stop-opacity="1" stop-color="rgb(9.933472%, 55.421448%, 18.269348%)" offset="0.363281"/><stop stop-opacity="1" stop-color="rgb(9.811401%, 55.174255%, 18.32428%)" offset="0.371094"/><stop stop-opacity="1" stop-color="rgb(9.689331%, 54.925537%, 18.379211%)" offset="0.378906"/><stop stop-opacity="1" stop-color="rgb(9.565735%, 54.676819%, 18.434143%)" offset="0.386719"/><stop stop-opacity="1" stop-color="rgb(9.443665%, 54.428101%, 18.487549%)" offset="0.394531"/><stop stop-opacity="1" stop-color="rgb(9.320068%, 54.179382%, 18.54248%)" offset="0.402344"/><stop stop-opacity="1" stop-color="rgb(9.197998%, 53.93219%, 18.597412%)" offset="0.410156"/><stop stop-opacity="1" stop-color="rgb(9.075928%, 53.683472%, 18.652344%)" offset="0.417969"/><stop stop-opacity="1" stop-color="rgb(8.952332%, 53.434753%, 18.707275%)" offset="0.425781"/><stop stop-opacity="1" stop-color="rgb(8.830261%, 53.186035%, 18.762207%)" offset="0.433594"/><stop stop-opacity="1" stop-color="rgb(8.708191%, 52.937317%, 18.815613%)" offset="0.441406"/><stop stop-opacity="1" stop-color="rgb(8.584595%, 52.688599%, 18.870544%)" offset="0.449219"/><stop stop-opacity="1" stop-color="rgb(8.462524%, 52.441406%, 18.925476%)" offset="0.457031"/><stop stop-opacity="1" stop-color="rgb(8.338928%, 52.192688%, 18.980408%)" offset="0.464844"/><stop stop-opacity="1" stop-color="rgb(8.216858%, 51.94397%, 19.035339%)" offset="0.472656"/><stop stop-opacity="1" stop-color="rgb(8.094788%, 51.695251%, 19.090271%)" offset="0.480469"/><stop stop-opacity="1" stop-color="rgb(7.971191%, 51.446533%, 19.143677%)" offset="0.488281"/><stop stop-opacity="1" stop-color="rgb(7.849121%, 51.199341%, 19.198608%)" offset="0.496094"/><stop stop-opacity="1" stop-color="rgb(7.695007%, 50.888062%, 19.267273%)" offset="0.503906"/><stop stop-opacity="1" stop-color="rgb(7.511902%, 50.515747%, 19.34967%)" offset="0.515625"/><stop stop-opacity="1" stop-color="rgb(7.327271%, 50.143433%, 19.432068%)" offset="0.527344"/><stop stop-opacity="1" stop-color="rgb(7.144165%, 49.771118%, 19.512939%)" offset="0.539062"/><stop stop-opacity="1" stop-color="rgb(6.959534%, 49.397278%, 19.595337%)" offset="0.550781"/><stop stop-opacity="1" stop-color="rgb(6.774902%, 49.024963%, 19.677734%)" offset="0.5625"/><stop stop-opacity="1" stop-color="rgb(6.591797%, 48.652649%, 19.760132%)" offset="0.574219"/><stop stop-opacity="1" stop-color="rgb(6.407166%, 48.280334%, 19.841003%)" offset="0.585938"/><stop stop-opacity="1" stop-color="rgb(6.22406%, 47.90802%, 19.923401%)" offset="0.597656"/><stop stop-opacity="1" stop-color="rgb(6.039429%, 47.53418%, 20.005798%)" offset="0.609375"/><stop stop-opacity="1" stop-color="rgb(5.856323%, 47.161865%, 20.088196%)" offset="0.621094"/><stop stop-opacity="1" stop-color="rgb(5.702209%, 46.850586%, 20.15686%)" offset="0.632812"/><stop stop-opacity="1" stop-color="rgb(5.580139%, 46.601868%, 20.210266%)" offset="0.640625"/><stop stop-opacity="1" stop-color="rgb(5.456543%, 46.354675%, 20.265198%)" offset="0.648438"/><stop stop-opacity="1" stop-color="rgb(5.334473%, 46.105957%, 20.320129%)" offset="0.65625"/><stop stop-opacity="1" stop-color="rgb(5.212402%, 45.857239%, 20.375061%)" offset="0.664062"/><stop stop-opacity="1" stop-color="rgb(5.088806%, 45.608521%, 20.429993%)" offset="0.671875"/><stop stop-opacity="1" stop-color="rgb(4.966736%, 45.359802%, 20.484924%)" offset="0.679688"/><stop stop-opacity="1" stop-color="rgb(4.84314%, 45.11261%, 20.53833%)" offset="0.6875"/><stop stop-opacity="1" stop-color="rgb(4.721069%, 44.863892%, 20.593262%)" offset="0.695312"/><stop stop-opacity="1" stop-color="rgb(4.598999%, 44.615173%, 20.648193%)" offset="0.703125"/><stop stop-opacity="1" stop-color="rgb(4.475403%, 44.366455%, 20.703125%)" offset="0.710938"/><stop stop-opacity="1" stop-color="rgb(4.353333%, 44.117737%, 20.758057%)" offset="0.71875"/><stop stop-opacity="1" stop-color="rgb(4.231262%, 43.869019%, 20.812988%)" offset="0.726562"/><stop stop-opacity="1" stop-color="rgb(4.107666%, 43.621826%, 20.866394%)" offset="0.734375"/><stop stop-opacity="1" stop-color="rgb(3.985596%, 43.373108%, 20.921326%)" offset="0.742188"/><stop stop-opacity="1" stop-color="rgb(3.862%, 43.12439%, 20.976257%)" offset="0.75"/><stop stop-opacity="1" stop-color="rgb(3.709412%, 42.814636%, 21.044922%)" offset="0.757812"/><stop stop-opacity="1" stop-color="rgb(3.52478%, 42.442322%, 21.127319%)" offset="0.769531"/><stop stop-opacity="1" stop-color="rgb(3.341675%, 42.068481%, 21.208191%)" offset="0.78125"/><stop stop-opacity="1" stop-color="rgb(3.157043%, 41.696167%, 21.290588%)" offset="0.792969"/><stop stop-opacity="1" stop-color="rgb(2.973938%, 41.323853%, 21.372986%)" offset="0.804688"/><stop stop-opacity="1" stop-color="rgb(2.819824%, 41.012573%, 21.44165%)" offset="0.816406"/><stop stop-opacity="1" stop-color="rgb(2.697754%, 40.763855%, 21.496582%)" offset="0.824219"/><stop stop-opacity="1" stop-color="rgb(2.574158%, 40.515137%, 21.549988%)" offset="0.832031"/><stop stop-opacity="1" stop-color="rgb(2.452087%, 40.267944%, 21.604919%)" offset="0.839844"/><stop stop-opacity="1" stop-color="rgb(2.330017%, 40.019226%, 21.659851%)" offset="0.847656"/><stop stop-opacity="1" stop-color="rgb(2.206421%, 39.770508%, 21.714783%)" offset="0.855469"/><stop stop-opacity="1" stop-color="rgb(2.084351%, 39.52179%, 21.769714%)" offset="0.863281"/><stop stop-opacity="1" stop-color="rgb(1.960754%, 39.273071%, 21.824646%)" offset="0.871094"/><stop stop-opacity="1" stop-color="rgb(1.808167%, 38.963318%, 21.891785%)" offset="0.878906"/><stop stop-opacity="1" stop-color="rgb(1.623535%, 38.591003%, 21.974182%)" offset="0.890625"/><stop stop-opacity="1" stop-color="rgb(1.44043%, 38.218689%, 22.05658%)" offset="0.902344"/><stop stop-opacity="1" stop-color="rgb(1.286316%, 37.90741%, 22.125244%)" offset="0.914062"/><stop stop-opacity="1" stop-color="rgb(1.164246%, 37.658691%, 22.180176%)" offset="0.921875"/><stop stop-opacity="1" stop-color="rgb(1.042175%, 37.409973%, 22.233582%)" offset="0.929688"/><stop stop-opacity="1" stop-color="rgb(0.918579%, 37.161255%, 22.288513%)" offset="0.9375"/><stop stop-opacity="1" stop-color="rgb(0.765991%, 36.851501%, 22.357178%)" offset="0.945312"/><stop stop-opacity="1" stop-color="rgb(0.611877%, 36.540222%, 22.425842%)" offset="0.957031"/><stop stop-opacity="1" stop-color="rgb(0.489807%, 36.29303%, 22.480774%)" offset="0.964844"/><stop stop-opacity="1" stop-color="rgb(0.335693%, 35.98175%, 22.547913%)" offset="0.972656"/><stop stop-opacity="1" stop-color="rgb(0.183105%, 35.671997%, 22.616577%)" offset="0.984375"/><stop stop-opacity="1" stop-color="rgb(0.0610352%, 35.423279%, 22.671509%)" offset="0.992188"/><stop stop-opacity="1" stop-color="rgb(0%, 35.299683%, 22.698975%)" offset="1"/></radialGradient><mask id="eb7d058c6f"><g filter="url(#f8be738ce3)"><rect x="-37.5" width="450" fill="#000000" y="-37.499999" height="449.999989" fill-opacity="0.75"/></g></mask><clipPath id="c5cb6bba5b"><path d="M 0.363281 59 L 64 59 L 64 108 L 0.363281 108 Z M 0.363281 59 " clip-rule="nonzero"/></clipPath><clipPath id="4315525f9b"><path d="M 53 59 L 116.613281 59 L 116.613281 108 L 53 108 Z M 53 59 " clip-rule="nonzero"/></clipPath><clipPath id="59031b0e79"><path d="M 53 97 L 64 97 L 64 136.71875 L 53 136.71875 Z M 53 97 " clip-rule="nonzero"/></clipPath><clipPath id="1cf7e9b0fb"><rect x="0" width="117" y="0" height="137"/></clipPath></defs><g mask="url(#dfae81c6e1)"><g transform="matrix(1, 0, 0, 1, 66, 66)"><g clip-path="url(#4ee7bb0be0)"><g clip-path="url(#b802252097)"><g clip-path="url(#49e47b4fc4)"><path fill="#228b22" d="M 0 0 L 243 0 L 243 243 L 0 243 Z M 0 0 " fill-opacity="1" fill-rule="nonzero"/></g></g></g></g></g><g clip-path="url(#8f881e2366)"><g clip-path="url(#40c4cf669f)"><path fill="url(#1968323f9e)" d="M 82.929688 82.929688 L 82.929688 292.070312 L 292.070312 292.070312 L 292.070312 82.929688 Z M 82.929688 82.929688 " fill-rule="nonzero"/></g></g><g mask="url(#eb7d058c6f)"><g transform="matrix(1, 0, 0, 1, 129, 122)"><g clip-path="url(#1cf7e9b0fb)"><path fill="#ffffff" d="M 103.027344 29.203125 C 101.785156 29.203125 100.546875 28.730469 99.601562 27.785156 C 76.933594 5.125 40.0625 5.125 17.390625 27.785156 C 15.5 29.675781 12.433594 29.675781 10.539062 27.785156 C 8.648438 25.890625 8.648438 22.828125 10.539062 20.933594 C 36.984375 -5.503906 80.007812 -5.503906 106.449219 20.933594 C 108.34375 22.828125 108.34375 25.890625 106.449219 27.785156 C 105.503906 28.730469 104.265625 29.203125 103.027344 29.203125 Z M 103.027344 29.203125 " fill-opacity="1" fill-rule="nonzero"/><path fill="#ffffff" d="M 89.328125 42.90625 C 88.085938 42.90625 86.847656 42.433594 85.902344 41.488281 C 78.582031 34.167969 68.847656 30.136719 58.496094 30.136719 C 48.144531 30.136719 38.410156 34.164062 31.089844 41.488281 C 29.199219 43.378906 26.132812 43.378906 24.242188 41.488281 C 22.347656 39.597656 22.347656 36.53125 24.242188 34.636719 C 33.390625 25.484375 45.558594 20.445312 58.496094 20.445312 C 71.433594 20.445312 83.601562 25.484375 92.75 34.636719 C 94.644531 36.527344 94.644531 39.597656 92.75 41.488281 C 91.804688 42.433594 90.566406 42.90625 89.328125 42.90625 Z M 89.328125 42.90625 " fill-opacity="1" fill-rule="nonzero"/><path fill="#ffffff" d="M 75.621094 56.605469 C 74.382812 56.605469 73.140625 56.132812 72.195312 55.1875 C 64.875 47.871094 52.121094 47.871094 44.796875 55.1875 C 42.90625 57.078125 39.839844 57.078125 37.945312 55.1875 C 36.054688 53.296875 36.054688 50.230469 37.945312 48.335938 C 43.433594 42.847656 50.734375 39.824219 58.496094 39.824219 C 66.261719 39.824219 73.558594 42.847656 79.046875 48.335938 C 80.9375 50.230469 80.9375 53.296875 79.046875 55.1875 C 78.101562 56.132812 76.859375 56.605469 75.621094 56.605469 Z M 75.621094 56.605469 " fill-opacity="1" fill-rule="nonzero"/><g clip-path="url(#c5cb6bba5b)"><path fill="#ffffff" d="M 58.496094 107.644531 L 43.964844 107.644531 C 19.921875 107.644531 0.363281 88.085938 0.363281 64.046875 C 0.363281 61.371094 2.53125 59.203125 5.210938 59.203125 L 19.742188 59.203125 C 43.785156 59.203125 63.339844 78.761719 63.339844 102.800781 C 63.339844 105.472656 61.171875 107.644531 58.496094 107.644531 Z M 10.398438 68.890625 C 12.753906 85.300781 26.910156 97.957031 43.964844 97.957031 L 53.304688 97.957031 C 50.949219 81.542969 36.796875 68.890625 19.742188 68.890625 Z M 10.398438 68.890625 " fill-opacity="1" fill-rule="nonzero"/></g><path fill="#ffffff" d="M 58.492188 107.640625 C 57.339844 107.640625 56.183594 107.230469 55.261719 106.402344 C 55.164062 106.316406 45.578125 97.773438 26.863281 86.078125 C 24.59375 84.660156 23.90625 81.671875 25.324219 79.402344 C 26.742188 77.136719 29.722656 76.445312 32 77.863281 C 51.507812 90.058594 61.328125 98.832031 61.738281 99.199219 C 63.722656 100.988281 63.882812 104.046875 62.097656 106.035156 C 61.140625 107.097656 59.820312 107.640625 58.492188 107.640625 Z M 58.492188 107.640625 " fill-opacity="1" fill-rule="nonzero"/><g clip-path="url(#4315525f9b)"><path fill="#ffffff" d="M 73.027344 107.644531 L 58.496094 107.644531 C 55.820312 107.644531 53.652344 105.472656 53.652344 102.800781 C 53.652344 78.761719 73.207031 59.203125 97.25 59.203125 L 111.78125 59.203125 C 114.460938 59.203125 116.625 61.371094 116.625 64.046875 C 116.625 88.085938 97.070312 107.644531 73.027344 107.644531 Z M 63.6875 97.957031 L 73.027344 97.957031 C 90.082031 97.957031 104.238281 85.300781 106.59375 68.890625 L 97.25 68.890625 C 80.195312 68.890625 66.042969 81.542969 63.6875 97.957031 Z M 63.6875 97.957031 " fill-opacity="1" fill-rule="nonzero"/></g><path fill="#ffffff" d="M 58.5 107.640625 C 57.171875 107.640625 55.851562 107.101562 54.894531 106.035156 C 53.109375 104.046875 53.269531 100.988281 55.253906 99.199219 C 55.664062 98.832031 65.484375 90.058594 84.992188 77.863281 C 87.269531 76.445312 90.25 77.136719 91.667969 79.402344 C 93.085938 81.671875 92.394531 84.660156 90.128906 86.078125 C 71.414062 97.773438 61.828125 106.316406 61.730469 106.402344 C 60.808594 107.234375 59.652344 107.640625 58.5 107.640625 Z M 58.5 107.640625 " fill-opacity="1" fill-rule="nonzero"/><g clip-path="url(#59031b0e79)"><path fill="#ffffff" d="M 58.496094 136.710938 C 55.820312 136.710938 53.652344 134.539062 53.652344 131.863281 L 53.652344 102.800781 C 53.652344 100.125 55.820312 97.957031 58.496094 97.957031 C 61.171875 97.957031 63.339844 100.125 63.339844 102.800781 L 63.339844 131.863281 C 63.339844 134.539062 61.171875 136.710938 58.496094 136.710938 Z M 58.496094 136.710938 " fill-opacity="1" fill-rule="nonzero"/></g></g></g></g></svg>